<svg xmlns="http://www.w3.org/2000/svg" viewBox="0 0 800 760" width="800" height="760" role="img">

<defs>
  <linearGradient id="bg7" x1="0" y1="0" x2="1" y2="1">
    <stop offset="0" stop-color="#5A1229"/><stop offset="0.55" stop-color="#2A0713"/><stop offset="1" stop-color="#16040A"/>
  </linearGradient>
  <radialGradient id="gl7" cx="50%" cy="42%" r="60%">
    <stop offset="0" stop-color="#F6E6C8" stop-opacity="0.30"/><stop offset="1" stop-color="#F6E6C8" stop-opacity="0"/>
  </radialGradient>
  <linearGradient id="gold7" x1="0" y1="0" x2="1" y2="1">
    <stop offset="0" stop-color="#8A6A16"/><stop offset="0.4" stop-color="#F2E2B6"/><stop offset="1" stop-color="#C9A227"/>
  </linearGradient>
</defs>
<rect width="800" height="760" fill="url(#bg7)"/>
<rect width="800" height="760" fill="url(#gl7)"/>
<rect x="14" y="14" width="772" height="732" fill="none" stroke="#D9B65A" stroke-width="2.5" opacity="0.75"/>
<rect x="26" y="26" width="748" height="708" fill="none" stroke="#D9B65A" stroke-width="1" opacity="0.35"/>
<g transform="translate(400 395.2)"><path d="M0 140 Q-78 20 -120 -60" fill="none" stroke="#D9B65A" stroke-width="1.6" opacity="0.5"/>
      <ellipse cx="-120" cy="-70" rx="20" ry="30" fill="none" stroke="url(#gold7)" stroke-width="2.4"/>
      <ellipse cx="-120" cy="-70" rx="9" ry="14" fill="#F08BA6" opacity="0.5"/>
      <circle cx="-120" cy="-70" r="4" fill="#F2E2B6"/><path d="M0 140 Q-52 20 -80 -60" fill="none" stroke="#D9B65A" stroke-width="1.6" opacity="0.5"/>
      <ellipse cx="-80" cy="-70" rx="20" ry="30" fill="none" stroke="url(#gold7)" stroke-width="2.4"/>
      <ellipse cx="-80" cy="-70" rx="9" ry="14" fill="#F08BA6" opacity="0.5"/>
      <circle cx="-80" cy="-70" r="4" fill="#F2E2B6"/><path d="M0 140 Q-26 20 -40 -60" fill="none" stroke="#D9B65A" stroke-width="1.6" opacity="0.5"/>
      <ellipse cx="-40" cy="-70" rx="20" ry="30" fill="none" stroke="url(#gold7)" stroke-width="2.4"/>
      <ellipse cx="-40" cy="-70" rx="9" ry="14" fill="#F08BA6" opacity="0.5"/>
      <circle cx="-40" cy="-70" r="4" fill="#F2E2B6"/><path d="M0 140 Q0 20 0 -60" fill="none" stroke="#D9B65A" stroke-width="1.6" opacity="0.5"/>
      <ellipse cx="0" cy="-70" rx="20" ry="30" fill="none" stroke="url(#gold7)" stroke-width="2.4"/>
      <ellipse cx="0" cy="-70" rx="9" ry="14" fill="#F08BA6" opacity="0.5"/>
      <circle cx="0" cy="-70" r="4" fill="#F2E2B6"/><path d="M0 140 Q26 20 40 -60" fill="none" stroke="#D9B65A" stroke-width="1.6" opacity="0.5"/>
      <ellipse cx="40" cy="-70" rx="20" ry="30" fill="none" stroke="url(#gold7)" stroke-width="2.4"/>
      <ellipse cx="40" cy="-70" rx="9" ry="14" fill="#F08BA6" opacity="0.5"/>
      <circle cx="40" cy="-70" r="4" fill="#F2E2B6"/><path d="M0 140 Q52 20 80 -60" fill="none" stroke="#D9B65A" stroke-width="1.6" opacity="0.5"/>
      <ellipse cx="80" cy="-70" rx="20" ry="30" fill="none" stroke="url(#gold7)" stroke-width="2.4"/>
      <ellipse cx="80" cy="-70" rx="9" ry="14" fill="#F08BA6" opacity="0.5"/>
      <circle cx="80" cy="-70" r="4" fill="#F2E2B6"/><path d="M0 140 Q78 20 120 -60" fill="none" stroke="#D9B65A" stroke-width="1.6" opacity="0.5"/>
      <ellipse cx="120" cy="-70" rx="20" ry="30" fill="none" stroke="url(#gold7)" stroke-width="2.4"/>
      <ellipse cx="120" cy="-70" rx="9" ry="14" fill="#F08BA6" opacity="0.5"/>
      <circle cx="120" cy="-70" r="4" fill="#F2E2B6"/></g><g fill="none" stroke="url(#gold7)" stroke-width="2.4" opacity="0.95"><circle cx="400" cy="152" r="74"/><circle cx="400" cy="152" r="57.72" stroke-width="1.2"/><circle cx="400" cy="152" r="22.2"/><ellipse cx="440.0" cy="152.0" rx="16.3" ry="5.5" transform="rotate(0.0 440.0 152.0)"/><ellipse cx="436.9" cy="167.3" rx="16.3" ry="5.5" transform="rotate(22.5 436.9 167.3)"/><ellipse cx="428.3" cy="180.3" rx="16.3" ry="5.5" transform="rotate(45.0 428.3 180.3)"/><ellipse cx="415.3" cy="188.9" rx="16.3" ry="5.5" transform="rotate(67.5 415.3 188.9)"/><ellipse cx="400.0" cy="192.0" rx="16.3" ry="5.5" transform="rotate(90.0 400.0 192.0)"/><ellipse cx="384.7" cy="188.9" rx="16.3" ry="5.5" transform="rotate(112.5 384.7 188.9)"/><ellipse cx="371.7" cy="180.3" rx="16.3" ry="5.5" transform="rotate(135.0 371.7 180.3)"/><ellipse cx="363.1" cy="167.3" rx="16.3" ry="5.5" transform="rotate(157.5 363.1 167.3)"/><ellipse cx="360.0" cy="152.0" rx="16.3" ry="5.5" transform="rotate(180.0 360.0 152.0)"/><ellipse cx="363.1" cy="136.7" rx="16.3" ry="5.5" transform="rotate(202.5 363.1 136.7)"/><ellipse cx="371.7" cy="123.7" rx="16.3" ry="5.5" transform="rotate(225.0 371.7 123.7)"/><ellipse cx="384.7" cy="115.1" rx="16.3" ry="5.5" transform="rotate(247.5 384.7 115.1)"/><ellipse cx="400.0" cy="112.0" rx="16.3" ry="5.5" transform="rotate(270.0 400.0 112.0)"/><ellipse cx="415.3" cy="115.1" rx="16.3" ry="5.5" transform="rotate(292.5 415.3 115.1)"/><ellipse cx="428.3" cy="123.7" rx="16.3" ry="5.5" transform="rotate(315.0 428.3 123.7)"/><ellipse cx="436.9" cy="136.7" rx="16.3" ry="5.5" transform="rotate(337.5 436.9 136.7)"/><circle cx="482.9" cy="152.0" r="3.6" fill="#F2E2B6" stroke="none"/><circle cx="480.1" cy="173.5" r="3.6" fill="#F2E2B6" stroke="none"/><circle cx="471.8" cy="193.4" r="3.6" fill="#F2E2B6" stroke="none"/><circle cx="458.6" cy="210.6" r="3.6" fill="#F2E2B6" stroke="none"/><circle cx="441.4" cy="223.8" r="3.6" fill="#F2E2B6" stroke="none"/><circle cx="421.5" cy="232.1" r="3.6" fill="#F2E2B6" stroke="none"/><circle cx="400.0" cy="234.9" r="3.6" fill="#F2E2B6" stroke="none"/><circle cx="378.5" cy="232.1" r="3.6" fill="#F2E2B6" stroke="none"/><circle cx="358.6" cy="223.8" r="3.6" fill="#F2E2B6" stroke="none"/><circle cx="341.4" cy="210.6" r="3.6" fill="#F2E2B6" stroke="none"/><circle cx="328.2" cy="193.4" r="3.6" fill="#F2E2B6" stroke="none"/><circle cx="319.9" cy="173.5" r="3.6" fill="#F2E2B6" stroke="none"/><circle cx="317.1" cy="152.0" r="3.6" fill="#F2E2B6" stroke="none"/><circle cx="319.9" cy="130.5" r="3.6" fill="#F2E2B6" stroke="none"/><circle cx="328.2" cy="110.6" r="3.6" fill="#F2E2B6" stroke="none"/><circle cx="341.4" cy="93.4" r="3.6" fill="#F2E2B6" stroke="none"/><circle cx="358.6" cy="80.2" r="3.6" fill="#F2E2B6" stroke="none"/><circle cx="378.5" cy="71.9" r="3.6" fill="#F2E2B6" stroke="none"/><circle cx="400.0" cy="69.1" r="3.6" fill="#F2E2B6" stroke="none"/><circle cx="421.5" cy="71.9" r="3.6" fill="#F2E2B6" stroke="none"/><circle cx="441.4" cy="80.2" r="3.6" fill="#F2E2B6" stroke="none"/><circle cx="458.6" cy="93.4" r="3.6" fill="#F2E2B6" stroke="none"/><circle cx="471.8" cy="110.6" r="3.6" fill="#F2E2B6" stroke="none"/><circle cx="480.1" cy="130.5" r="3.6" fill="#F2E2B6" stroke="none"/><circle cx="400" cy="152" r="7.4" fill="#F2E2B6" stroke="none"/></g>
</svg>